<svg width="7" height="7" viewBox="0 0 7 7" fill="none" xmlns="http://www.w3.org/2000/svg">
<path d="M5.74852 4.50248C5.50158 4.50248 5.2602 4.57571 5.05488 4.71289C4.84956 4.85008 4.68954 5.04507 4.59504 5.27321C4.50054 5.50135 4.47582 5.75238 4.52399 5.99457C4.57217 6.23676 4.69107 6.45922 4.86568 6.63383C5.04029 6.80844 5.26275 6.92735 5.50494 6.97552C5.74713 7.0237 5.99817 6.99897 6.2263 6.90447C6.45444 6.80998 6.64943 6.64995 6.78662 6.44463C6.92381 6.23932 6.99703 5.99793 6.99703 5.751C7.00896 5.58397 6.98485 5.41634 6.92632 5.25945C6.8678 5.10256 6.77623 4.96009 6.65783 4.84169C6.53942 4.72328 6.39695 4.63171 6.24006 4.57319C6.08317 4.51467 5.91554 4.49055 5.74852 4.50248Z" fill="white"/>
<path d="M1.25027 2.49897C1.49744 2.49897 1.73907 2.42567 1.94458 2.28835C2.1501 2.15103 2.31028 1.95585 2.40487 1.72749C2.49946 1.49913 2.52421 1.24786 2.47599 1.00543C2.42777 0.763008 2.30874 0.540327 2.13396 0.365549C1.95918 0.190771 1.7365 0.0717466 1.49408 0.0235255C1.25166 -0.0246956 1.00038 5.32046e-05 0.77202 0.0946423C0.543661 0.189231 0.34848 0.349412 0.211158 0.554929C0.0738365 0.760446 0.000541295 1.00207 0.000541295 1.24924C-0.00440106 1.4147 0.0245449 1.57942 0.0856004 1.73328C0.146656 1.88714 0.238531 2.02689 0.355579 2.14393C0.472627 2.26098 0.612375 2.35286 0.766234 2.41391C0.920093 2.47497 1.08481 2.50391 1.25027 2.49897Z" fill="white"/>
<path d="M6.32547 0.675503C6.21295 0.563123 6.06043 0.5 5.9014 0.5C5.74237 0.5 5.58984 0.563123 5.47732 0.675503L0.67648 5.47635C0.5641 5.58887 0.500977 5.74139 0.500977 5.90042C0.500977 6.05945 0.5641 6.21198 0.67648 6.3245C0.789 6.43688 0.941526 6.5 1.10055 6.5C1.25958 6.5 1.41211 6.43688 1.52463 6.3245L6.32547 1.52365C6.43785 1.41113 6.50098 1.25861 6.50098 1.09958C6.50098 0.940549 6.43785 0.788023 6.32547 0.675503Z" fill="white"/>
</svg>
